<svg class="rhombus-logo" xmlns="http://www.w3.org/2000/svg" viewBox="0 0 938.31 244.35">
  <path class="cls-1" d="M111.9,276.5a1,1,0,0,1-.78-.4L40.9,164.48a1.46,1.46,0,0,1-.15-1.52l18.11-37.28a1.08,1.08,0,0,1,.94-.64h9.53a1.3,1.3,0,0,1,0,2.56h-8.9L43,163.41l69.05,109.24,67.71-109.2L160.43,127.6l-78.79.09a1.3,1.3,0,0,1,0-2.56L161,125a1,1,0,0,1,.91.59l20.13,37.28a1.46,1.46,0,0,1-.12,1.57L112.69,276.09a1,1,0,0,1-.78.41Z" transform="translate(-38.68 -34.08)"/><path class="cls-1" d="M41.68,164.88a1.13,1.13,0,0,1-1-1,1.29,1.29,0,0,1,.82-1.53l78.87-21.11a1.1,1.1,0,0,1,1.3,1,1.31,1.31,0,0,1-.82,1.53L41.92,164.85A1,1,0,0,1,41.68,164.88Z" transform="translate(-38.68 -34.08)"/><path class="cls-1" d="M181.16,164.88a.84.84,0,0,1-.35-.07L81.94,127.55a1.33,1.33,0,0,1-.67-1.62,1,1,0,0,1,1.37-.8l98.86,37.26a1.34,1.34,0,0,1,.68,1.62A1.11,1.11,0,0,1,181.16,164.88Z" transform="translate(-38.68 -34.08)"/><path class="cls-1" d="M69.86,127.42a1,1,0,0,1-1.33-.32,1.46,1.46,0,0,1,.15-1.81l59.57-58.2a1,1,0,0,1,1.53.17,1.44,1.44,0,0,1-.15,1.8L70.06,127.27A1.3,1.3,0,0,1,69.86,127.42Z" transform="translate(-38.68 -34.08)"/><path class="cls-1" d="M110.84,86.42a1.47,1.47,0,0,1-.13-1.59,1,1,0,0,1,1.5-.37l45.7,33.42a1.55,1.55,0,0,1,.36,1.84,1,1,0,0,1-1.55.3L111,86.6A1.07,1.07,0,0,1,110.84,86.42Z" transform="translate(-38.68 -34.08)"/><path class="cls-1" d="M64.57,118.61a1,1,0,0,1-1.35.1,1.43,1.43,0,0,1-.26-1.79L111,36.75a1,1,0,0,1,1.51-.31,1.44,1.44,0,0,1,.26,1.78L64.73,118.4A1.16,1.16,0,0,1,64.57,118.61Z" transform="translate(-38.68 -34.08)"/><path class="cls-1" d="M156.65,119.94a1,1,0,0,0,1.35.15,1.45,1.45,0,0,0,.3-1.78L112.89,36.58a1,1,0,0,0-1.5-.37,1.44,1.44,0,0,0-.31,1.78l45.42,81.73A.71.71,0,0,0,156.65,119.94Z" transform="translate(-38.68 -34.08)"/><path class="cls-1" d="M97.4,251.06a1,1,0,0,1-1.31.41,1.38,1.38,0,0,1-.56-1.69l28.86-105.46a1,1,0,0,1,1.43-.66,1.38,1.38,0,0,1,.56,1.69L97.52,250.81Z" transform="translate(-38.68 -34.08)"/><path class="cls-2" d="M315.24,265.87q-7.39,0-7.66-7.79l-.13-20.42q-.27-58.71-12.23-88.4a52.89,52.89,0,0,0-19.61-24c-2.15-1.52-3.72-2.29-4.7-2.29-1.17,0-1.75,1.26-1.75,3.77a21.28,21.28,0,0,0,.13,2.21c.09.85.14,4.55.14,11.08l-1.08,108.28q-.14,9.54-8.06,9.54-8.19,0-8.19-11.42l.13-9.27q1.49-132,2.55-176.39.14-7.92,4.44-9.26a16.59,16.59,0,0,1,5-.68q12.22,0,27.27,5.11a37.6,37.6,0,0,1,16.93,12,25.81,25.81,0,0,1,6.44,17.06q0,19.33-22,29c-2.15,1-3.22,1.8-3.22,2.42q0,1.35,2.82,3.76,18.94,16.8,25.12,46.89,5.64,27.54,5.64,77.51,0,6.59-.26,13.16Q322.77,265.88,315.24,265.87Zm-43.8-160.4q5.78,0,14.11-4.16a31.67,31.67,0,0,0,10.07-7.93,12.67,12.67,0,0,0,3.23-8.46,9.24,9.24,0,0,0-.4-2.56q-3.9-13-26.07-14.91a1.94,1.94,0,0,0-1.54.54c-.32.36-.52,1.52-.61,3.49q0,11.16-.4,26.74a38.13,38.13,0,0,0,.27,6.38A1.24,1.24,0,0,0,271.44,105.47Z" transform="translate(-38.68 -34.08)"/><path class="cls-2" d="M361.72,257.54q-7,0-7.39-7.39l-.13-8.59q0-52.8,2-178.54.14-7.79,6.45-9.4a7.79,7.79,0,0,1,1.88-.27,7.65,7.65,0,0,1,5.24,2.21,8.06,8.06,0,0,1,2.42,6.25q-.54,14.5-.54,39.23a11.24,11.24,0,0,0,.27,3.36q2.15.66,15.85.67l18.67.13q7.4,0,8.4-.94c.67-.62,1-4,1-10.21L416,59.66q.13-8.19,8.73-8.19,7.39,0,7.39,8.73-1.74,98.87-2.28,182.7,0,7.78-6.18,9.4a8.33,8.33,0,0,1-2,.27,8,8,0,0,1-5.1-1.95,7.79,7.79,0,0,1-2.69-5.84c-.09-1.7-.13-3.45-.13-5.24q0-49,1.61-115.67c0-2.23-.4-3.49-1.21-3.76q-1.87-.4-37.08-.4-4.29,0-5,1.07c-.5.72-.74,2.33-.74,4.84q0,20-.41,40-.8,59.79-.8,82.08Q370.05,257.54,361.72,257.54Z" transform="translate(-38.68 -34.08)"/><path class="cls-2" d="M504.12,258.21q-6.58,0-13.3-4.7a34.89,34.89,0,0,1-12.36-15q-10.35-24.3-10.34-83.55,0-7.26.53-25,.81-32.77,7.52-53.87Q484,52.14,507.61,51.2q14.37,0,22.17,12.63,13.69,22,13.7,72.81l.13,9q0,36.95-4.83,65.42Q532.33,248.28,512,256.6A20.65,20.65,0,0,1,504.12,258.21Zm-.27-15.85a8.36,8.36,0,0,0,3.49-.8q20.16-9.41,20.15-95,0-5.78-.13-9.54-1.49-70.53-19.62-70.53a12.75,12.75,0,0,0-3.49.54q-16.51,5.1-19.07,46.88-.81,12.9-.81,37.48,0,7.53.2,21.5t2.29,32.1q2.07,18.13,7.05,28.89Q497.66,242.36,503.85,242.36Z" transform="translate(-38.68 -34.08)"/><path class="cls-2" d="M670.16,257.94h-.41a7.68,7.68,0,0,1-5.57-2.14,8.43,8.43,0,0,1-2.48-5.65V233q.81-95.25,2-143.88.13-2.82.14-6.45c0-2.86-.23-4.3-.68-4.3q-1.06,0-4.7,4.84l-13,18.94q-11.69,17.07-18.67,17.06-8.06,0-18.94-17.06-6.18-9.54-7-11-3.9-7.53-5.64-7.53-.68,0-.67,9.81,0,11.55-.81,53.6-.27,17.86-.94,96.46a10,10,0,0,1-2,6.51,7.33,7.33,0,0,1-6,2.49q-7.65,0-7.79-8.6v-5.51q1.74-168.6,2-176.65a22.47,22.47,0,0,1,1.48-7.26q1.35-3.49,6.58-3.49a8,8,0,0,1,6.12,3,47.82,47.82,0,0,1,4.77,6.45q2.68,4.58,12.36,17.6,6.16,8.19,11.55,16.93c2.15,3.58,4,5.37,5.51,5.37q1.07,0,13.16-16.25,19.08-25.8,22-30.1,4.85-7.25,9.4-7.25a7.07,7.07,0,0,1,3,.67,7.71,7.71,0,0,1,4.84,5.78Q680,55,680,63.42q-2.15,167.25-2.28,184.31Q677.68,257,670.16,257.94Z" transform="translate(-38.68 -34.08)"/><path class="cls-2" d="M734.1,257.54h-.53q-8.75,0-8.74-8.19Q726,102.11,726.72,60.87a12.94,12.94,0,0,1,2-7.32c1.25-1.75,3.72-2.62,7.39-2.62a53.47,53.47,0,0,1,11.75,1.61A82.89,82.89,0,0,1,759.49,56a39.94,39.94,0,0,1,13,8.06,32.07,32.07,0,0,1,10.61,24.32,27.27,27.27,0,0,1-3.29,12.83q-3.3,6.24-13.24,12c-2.68,1.53-4,2.64-4,3.36a4.13,4.13,0,0,0,1.35,2.55q2.28,2.55,6.85,8.47,16.79,21.75,16.79,56.55a107.07,107.07,0,0,1-5.78,34.53,66.53,66.53,0,0,1-17.06,27.13Q753.18,256.88,734.1,257.54ZM741.49,241a9.56,9.56,0,0,0,3.36-1.21,38.94,38.94,0,0,0,18.54-18.41q8.19-16.38,8.19-39.09a87.57,87.57,0,0,0-9-39,44.21,44.21,0,0,0-17.33-19.07,5.53,5.53,0,0,0-2.55-.94c-.72,0-1.07.89-1.07,2.68V136.5q0,9.81-.14,18.94-.68,46.76-.67,72.28v12.76C740.82,240.84,741,241,741.49,241Zm3.63-134.34q8.86,0,18.27-9.81a10.84,10.84,0,0,0,3.09-7.79q0-18.14-22.3-20.82a1.53,1.53,0,0,0-1.21.67q-.54.67-.81,30.9a35.1,35.1,0,0,0,.27,5.37C742.61,106.19,743.51,106.68,745.12,106.68Z" transform="translate(-38.68 -34.08)"/><path class="cls-2" d="M852.72,258.08a22.85,22.85,0,0,1-11.15-3,31.14,31.14,0,0,1-14.44-16.39,102,102,0,0,1-5.57-21.63,525.57,525.57,0,0,1-5.11-71.19l-.13-32.11q0-27.94.4-48A13.1,13.1,0,0,1,819,58.32a6.18,6.18,0,0,1,5.5-2.55q6.59,0,7.79,5.77a38.28,38.28,0,0,1,.54,7.93q-.68,25.11-.67,53.33,0,4.7.13,23.51t2.83,51.18q.4,5.77,1.67,14.65a105.88,105.88,0,0,0,3.9,17.06q2.63,8.19,7.59,11.68a8,8,0,0,0,4.7,1.75q5.78,0,10.35-9,12.49-24.72,12.49-114.46V59.66q0-9.13,8.46-9.14a6.67,6.67,0,0,1,5.24,2.29,8.18,8.18,0,0,1,2,5.64l.27,54.54q0,16.94-.14,29.15-.4,24.47-3.49,54.68-1.08,10.76-3.43,23.24a73.82,73.82,0,0,1-8.19,22.84,29.34,29.34,0,0,1-17,14A21,21,0,0,1,852.72,258.08Z" transform="translate(-38.68 -34.08)"/><path class="cls-2" d="M943.13,257.81a25.8,25.8,0,0,1-16.79-6.18q-7.51-6.18-11.42-18.81a13.42,13.42,0,0,1-.67-4,15.63,15.63,0,0,1,.47-3.36q.46-2,4.1-3.62A7.71,7.71,0,0,1,922,221a7.36,7.36,0,0,1,7.39,5.1l.94,3.1q2.42,9.13,9.94,12.22a9.45,9.45,0,0,0,4,.94q4.17,0,8.4-3.63A21.44,21.44,0,0,0,959,229.4,40.27,40.27,0,0,0,961,216q0-23.91-7.12-43.26a326.2,326.2,0,0,0-18.54-40.7q-16.79-31.3-16.79-52.53,0-28.34,31.57-28.34,17.86,0,25,17.6a12.28,12.28,0,0,1,.8,4.29,6.67,6.67,0,0,1-1.74,4.71A7.8,7.8,0,0,1,968,80.62c-.27,0-1.15-.05-2.62-.14s-3.07-1.74-4.77-5c-1.44-2.86-2.33-4.57-2.69-5.1Q954.69,66,947.7,66q-13,0-13,15.17,0,19.75,19.88,55.22a198.42,198.42,0,0,1,12,24.31,165.38,165.38,0,0,1,7.19,24.72A138.21,138.21,0,0,1,977,215.22q-.27,35.21-26.87,41.65A28.17,28.17,0,0,1,943.13,257.81Z" transform="translate(-38.68 -34.08)"/>
</svg>